<svg width="222" height="223" viewBox="0 0 222 223" fill="none" xmlns="http://www.w3.org/2000/svg">
<path fill-rule="evenodd" clip-rule="evenodd" d="M221.796 111.398C221.796 172.646 172.146 222.296 110.898 222.296C49.6514 222.296 0 172.646 0 111.398C0 50.1514 49.6514 0.5 110.898 0.5C172.146 0.5 221.796 50.1514 221.796 111.398Z" fill="#FEE7B7"/>
<path fill-rule="evenodd" clip-rule="evenodd" d="M110.481 165.572C139.65 165.572 163.296 141.926 163.296 112.757C163.296 83.5885 139.65 59.9415 110.481 59.9415C81.3124 59.9415 57.6671 83.5885 57.6671 112.757C57.6671 141.926 81.3124 165.572 110.481 165.572Z" stroke="#FEBE21" stroke-width="4.92881"/>
<path d="M76.298 113.654C76.298 113.654 79.5593 111.398 85.9009 111.398C92.2434 111.398 95.5029 113.654 95.5029 113.654" stroke="#FEBE21" stroke-width="4.92881" stroke-linecap="round"/>
<path d="M121.372 134.465C121.372 134.465 116.71 138.722 110.369 138.722C104.026 138.722 99.3649 134.465 99.3649 134.465" stroke="#FEBE21" stroke-width="4.92881" stroke-linecap="round"/>
<path d="M124.206 113.654C124.206 113.654 127.466 111.398 133.809 111.398C140.151 111.398 143.411 113.654 143.411 113.654" stroke="#FEBE21" stroke-width="4.92881" stroke-linecap="round"/>
<path d="M109.216 61.7158C109.216 61.7158 102.228 70.1778 105.614 74.9198C109.002 79.6618 117.619 80.9207 121.219 78.52" stroke="#FEBE21" stroke-width="4.92881" stroke-linecap="round"/>
</svg>
