<svg width="222" height="222" viewBox="0 0 222 222" fill="none" xmlns="http://www.w3.org/2000/svg">
<path fill-rule="evenodd" clip-rule="evenodd" d="M221.343 110.956C221.343 171.959 171.889 221.413 110.886 221.413C49.8826 221.413 0.429932 171.959 0.429932 110.956C0.429932 49.9535 49.8826 0.5 110.886 0.5C171.889 0.5 221.343 49.9535 221.343 110.956Z" fill="#A9DCCF"/>
<path fill-rule="evenodd" clip-rule="evenodd" d="M110.886 164.188C139.939 164.188 163.49 140.636 163.49 111.584C163.49 82.5313 139.939 58.9785 110.886 58.9785C81.8336 58.9785 58.2816 82.5313 58.2816 111.584C58.2816 140.636 81.8336 164.188 110.886 164.188Z" stroke="#6FC5AF" stroke-width="4.92881"/>
<path d="M76.2151 112.779C76.2151 112.779 79.4625 110.532 85.7788 110.532C92.097 110.532 95.3435 112.779 95.3435 112.779" stroke="#6FC5AF" stroke-width="4.92881" stroke-linecap="round"/>
<path d="M121.846 133.502C121.846 133.502 117.203 137.741 110.887 137.741C104.568 137.741 99.9266 133.502 99.9266 133.502" stroke="#6FC5AF" stroke-width="4.92881" stroke-linecap="round"/>
<path d="M124.037 112.779C124.037 112.779 127.285 110.532 133.601 110.532C139.918 110.532 143.166 112.779 143.166 112.779" stroke="#6FC5AF" stroke-width="4.92881" stroke-linecap="round"/>
<path d="M109.743 61.3701C109.743 61.3701 102.783 69.7984 106.156 74.5215C109.53 79.2438 118.112 80.4985 121.699 78.1074" stroke="#6FC5AF" stroke-width="4.92881" stroke-linecap="round"/>
</svg>
