<svg width="222" height="222" viewBox="0 0 222 222" fill="none" xmlns="http://www.w3.org/2000/svg">
<path fill-rule="evenodd" clip-rule="evenodd" d="M221.355 110.956C221.355 171.959 171.901 221.413 110.898 221.413C49.8946 221.413 0.441895 171.959 0.441895 110.956C0.441895 49.9535 49.8946 0.5 110.898 0.5C171.901 0.5 221.355 49.9535 221.355 110.956Z" fill="#B9E5EF"/>
<path fill-rule="evenodd" clip-rule="evenodd" d="M110.898 164.188C139.951 164.188 163.502 140.636 163.502 111.584C163.502 82.5313 139.951 58.9785 110.898 58.9785C81.8457 58.9785 58.2937 82.5313 58.2937 111.584C58.2937 140.636 81.8457 164.188 110.898 164.188Z" stroke="#8BD3E4" stroke-width="4.92881"/>
<path d="M76.2271 112.779C76.2271 112.779 79.4745 110.532 85.7917 110.532C92.1089 110.532 95.3555 112.779 95.3555 112.779" stroke="#8BD3E4" stroke-width="4.92881" stroke-linecap="round"/>
<path d="M121.858 133.502C121.858 133.502 117.215 137.741 110.899 137.741C104.581 137.741 99.9387 133.502 99.9387 133.502" stroke="#8BD3E4" stroke-width="4.92881" stroke-linecap="round"/>
<path d="M124.05 112.779C124.05 112.779 127.297 110.532 133.613 110.532C139.931 110.532 143.178 112.779 143.178 112.779" stroke="#8BD3E4" stroke-width="4.92881" stroke-linecap="round"/>
<path d="M109.755 61.3701C109.755 61.3701 102.795 69.7984 106.168 74.5215C109.542 79.2438 118.124 80.4985 121.711 78.1074" stroke="#8BD3E4" stroke-width="4.92881" stroke-linecap="round"/>
</svg>
